Coordinates
version=1
nRows=17
nColumns=40
inDegrees=yes

Units are S.I. units (second, meters, Newtons, ...)
Angles are in degrees.

endheader
time	pelvis_tilt	pelvis_list	pelvis_rotation	pelvis_tx	pelvis_ty	pelvis_tz	hip_flexion_r	hip_adduction_r	hip_rotation_r	knee_angle_r	knee_angle_r_beta	ankle_angle_r	subtalar_angle_r	mtp_angle_r	hip_flexion_l	hip_adduction_l	hip_rotation_l	knee_angle_l	knee_angle_l_beta	ankle_angle_l	subtalar_angle_l	mtp_angle_l	lumbar_extension	lumbar_bending	lumbar_rotation	arm_flex_r	arm_add_r	arm_rot_r	elbow_flex_r	pro_sup_r	wrist_flex_r	wrist_dev_r	arm_flex_l	arm_add_l	arm_rot_l	elbow_flex_l	pro_sup_l	wrist_flex_l	wrist_dev_l
      1.19000000	      3.92514256	      0.25031062	      0.06123161	      0.00304918	      0.88728043	      0.97943165	     25.45021577	     -3.42852409	    -16.63937857	    -22.49335278	     -0.39258307	     -2.05513857	      0.00402881	      4.68579465	    -10.50703163	     -3.01161863	      8.34812662	    -13.05294570	     -0.22781688	     13.41905023	     -7.51337089	     -6.74215012	    -10.98633576	      2.22367183	     -3.52461665	      0.00458371	     -9.85817144	     13.20985254	     13.79577985	     89.95437384	      0.00000000	      0.00000000	     19.63486687	     14.12316657	    -14.11895409	     36.78645868	     89.95437384	      0.00000000	      0.00000000
      1.20000000	      3.94285128	      0.16025283	      0.22701924	      0.01238131	      0.88592130	      0.97998272	     25.40962532	     -3.57846301	    -18.29473209	    -20.56984495	     -0.35901152	     -2.15983315	      2.25185009	      2.71324841	    -11.07037838	     -2.76648413	      8.43573417	    -13.30312863	     -0.23218340	     13.60188724	     -8.04613192	     -7.26530938	    -11.02427303	      2.36770295	     -3.69205001	     -0.19175015	     -9.68563593	     12.48764885	     13.81214949	     89.95437384	      0.00000000	      0.00000000	     19.53341431	     14.07844365	    -13.22619195	     37.84988745	     89.95437384	      0.00000000	      0.00000000
      1.21000000	      3.58164782	      0.21948167	      0.24526900	      0.02119908	      0.88398025	      0.98076672	     25.88629231	     -3.59389213	    -18.80987558	    -18.91523484	     -0.33013313	     -2.01277314	      2.84783170	      2.42546748	    -11.11182125	     -2.74235229	      8.35023319	    -13.71420640	     -0.23935806	     13.95020566	     -8.00840061	     -7.36178026	    -10.71299119	      2.31338924	     -3.71687181	     -0.42015437	     -9.59267514	     12.34967624	     13.97379969	     89.95437384	      0.00000000	      0.00000000	     19.45430441	     14.19164589	    -12.95542431	     38.86921952	     89.95437384	      0.00000000	      0.00000000
      1.22000000	      3.65242437	     -0.12057335	      0.50415769	      0.03063406	      0.88283214	      0.98149901	     25.69759995	     -3.41915563	    -20.44947960	    -17.39954863	     -0.30367941	     -2.08660688	      4.37554862	      1.39735780	    -11.63945057	     -2.15724667	      8.44152445	    -14.17553574	     -0.24740977	     14.34104319	     -8.34267483	     -7.73940457	    -10.83128235	      2.73679942	     -3.97936600	     -0.48581407	     -9.41936768	     11.89692430	     13.86952063	     89.95437384	      0.00000000	      0.00000000	     19.26113380	     14.08617701	    -12.03102408	     39.75895627	     89.95437384	      0.00000000	      0.00000000
      1.23000000	      3.36511363	      0.03512756	      0.38607299	      0.03969716	      0.88103738	      0.98247695	     26.29038027	     -3.56127814	    -20.82800712	    -16.76513672	     -0.29260684	     -1.84676038	      4.38873908	      1.32071653	    -11.87350598	     -2.27878088	      8.35449517	    -14.39507957	     -0.25124153	     14.37478370	     -8.33285423	     -7.72829953	    -10.59783440	      2.54735529	     -3.70757188	     -0.73234387	     -9.32782638	     11.87308837	     13.92041566	     89.95437384	      0.00000000	      0.00000000	     19.31145929	     14.00184884	    -11.92454751	     40.33594018	     89.95437384	      0.00000000	      0.00000000
      1.24000000	      3.07590869	      0.07130482	      0.42367601	      0.04917972	      0.87939962	      0.98330003	     26.62668707	     -3.59840526	    -21.07185151	    -16.03389300	     -0.27984422	     -1.65195746	      4.63347463	      1.20430091	    -12.11278850	     -2.22742557	      8.19241145	    -14.64169840	     -0.25554585	     14.53116254	     -8.37780678	     -7.75540149	    -10.31191952	      2.52744815	     -3.70409185	     -0.96432213	     -9.22989885	     11.78362961	     14.04708351	     89.95437384	      0.00000000	      0.00000000	     19.07656881	     13.97725903	    -11.71998920	     41.04347561	     89.95437384	      0.00000000	      0.00000000
      1.25000000	      3.00407810	     -0.30885409	      0.88879070	      0.05895775	      0.87825877	      0.98391939	     26.33640333	     -3.27250696	    -21.27050719	    -15.11871389	     -0.26387134	     -1.64793794	      5.53757595	      0.84404330	    -12.46529912	     -1.56955992	      7.66028019	    -15.16031021	     -0.26459733	     14.89844109	     -8.63121487	     -7.93443887	    -10.28429839	      3.01401050	     -4.35568261	     -1.00937250	     -9.07855046	     11.47909826	     14.19473868	     89.95437384	      0.00000000	      0.00000000	     18.38892719	     14.08102716	    -10.91378056	     42.26930349	     89.95437384	      0.00000000	      0.00000000
      1.26000000	      2.81051733	     -0.24909997	      1.00869601	      0.06859877	      0.87691396	      0.98473237	     26.64481054	     -3.42097830	    -21.05557223	    -15.42303556	     -0.26918275	     -1.71576670	      5.36528600	      0.80551848	    -12.65359800	     -1.48228879	      7.50531426	    -15.70752962	     -0.27414811	     14.60118090	     -8.39008562	     -7.80606141	    -10.11842680	      2.95859643	     -4.30369178	     -1.29247809	     -9.00883626	     11.42650234	     14.48028474	     89.95437384	      0.00000000	      0.00000000	     18.24028384	     13.89716657	    -10.77890797	     42.57759928	     89.95437384	      0.00000000	      0.00000000
      1.27000000	      3.16956091	     -0.69494826	      1.49906438	      0.07927225	      0.87665725	      0.98535741	     25.94696341	     -3.24082979	    -22.18947758	    -15.61975145	     -0.27261609	     -2.01468659	      5.45447453	      0.28041554	    -13.59125159	     -0.70642145	      7.21952120	    -16.04519592	     -0.28004150	     14.63666781	     -8.86425027	     -8.10969979	    -10.48067138	      3.54211003	     -4.91305346	     -1.17937327	     -8.77544773	     10.96491953	     14.21972418	     89.95437384	      0.00000000	      0.00000000	     17.50053717	     13.67080024	     -9.53695879	     43.38724357	     89.95437384	      0.00000000	      0.00000000
      1.28000000	      3.04871179	     -0.83475133	      1.64109788	      0.08978294	      0.87567131	      0.98647313	     26.03237597	     -3.14978419	    -21.69545891	    -16.45950710	     -0.28727259	     -2.18193558	      5.14368432	      0.19292320	    -13.97415811	     -0.37378425	      6.91153563	    -16.46098573	     -0.28729840	     14.46055800	     -8.78787002	     -8.04922522	    -10.30166391	      3.69662125	     -4.96362842	     -1.37654108	     -8.66265232	     10.89827014	     14.32694666	     89.95437384	      0.00000000	      0.00000000	     17.08914837	     13.52900912	     -9.47052352	     43.58880384	     89.95437384	      0.00000000	      0.00000000
      1.29000000	      2.78431694	     -0.76341041	      1.76324189	      0.10048217	      0.87461266	      0.98747467	     26.03153118	     -3.21277198	    -21.20757574	    -17.06046253	     -0.29776124	     -2.30443178	      4.89828302	      0.18361633	    -14.09808642	     -0.28620419	      6.69336895	    -17.07259984	     -0.29797308	     14.07078534	     -8.48926777	     -7.88492743	     -9.96484547	      3.61208247	     -4.92955991	     -1.77433797	     -8.55747616	     10.86159184	     14.66444928	     89.95437384	      0.00000000	      0.00000000	     16.61456367	     13.33352830	     -9.43330168	     43.75494225	     89.95437384	      0.00000000	      0.00000000
      1.30000000	      3.16221372	     -1.40647684	      1.93039311	      0.11193236	      0.87473280	      0.98907154	     25.08380782	     -2.17092678	    -19.99660988	    -17.48131314	     -0.30510647	     -2.63564864	      1.65410649	     -0.43091676	    -15.12247489	      0.76273804	      7.06787452	    -17.32278794	     -0.30233969	     13.41804814	     -9.61370451	     -8.95647513	    -10.27152398	      4.32330896	     -5.16603166	     -1.61484184	     -8.37740264	     10.79734115	     14.32347558	     89.95437384	      0.00000000	      0.00000000	     15.81078334	     13.15147809	     -8.82701606	     44.07721527	     89.95437384	      0.00000000	      0.00000000
      1.31000000	      2.86245622	     -1.30043286	      1.97671392	      0.12325808	      0.87388636	      0.99029287	     24.99310830	     -2.16480945	    -19.57857460	    -18.12159891	     -0.31628157	     -2.88364366	      1.56250888	     -0.40252796	    -15.20788965	      0.79579353	      6.80378606	    -18.00490633	     -0.31424490	     12.97602658	     -9.24074242	     -8.75231703	     -9.83095074	      4.18128555	     -5.12937598	     -1.99895905	     -8.29398980	     10.75924614	     14.69999050	     89.95437384	      0.00000000	      0.00000000	     15.13809093	     12.95519310	     -8.83562895	     44.08212053	     89.95437384	      0.00000000	      0.00000000
      1.32000000	      2.88543759	     -1.87160554	      2.25375983	      0.13438404	      0.87413325	      0.99135279	     24.64502872	     -1.69410677	    -20.56472910	    -18.49156293	     -0.32273866	     -6.22273431	      0.79492690	      0.05400936	    -15.60270290	      1.63812791	      6.41115198	    -18.61424572	     -0.32487988	     12.18980238	     -8.98953521	     -8.73050777	     -9.74919657	      4.88662913	     -5.40100809	     -1.77523196	     -8.17568430	     10.85725865	     14.19085434	     89.95437384	      0.00000000	      0.00000000	     14.53013974	     12.60074249	     -8.58300753	     43.62748216	     89.95437384	      0.00000000	      0.00000000
      1.33000000	      2.73617020	     -2.41046540	      2.41561437	      0.14562564	      0.87445763	      0.99258818	     24.16614359	     -0.99413169	    -20.28284102	    -18.10709011	     -0.31602834	     -8.11867926	      0.69724202	      0.18332595	    -15.61547621	      2.42713381	      6.16357864	    -19.59551930	     -0.34200633	     11.37214948	     -8.66676106	     -8.72127825	     -9.48144420	      5.52124971	     -5.49621118	     -1.81692884	     -8.15310321	     10.91501152	     14.18427102	     89.95437384	      0.00000000	      0.00000000	     13.90764699	     12.16869181	     -8.36571908	     43.01903555	     89.95437384	      0.00000000	      0.00000000
      1.34000000	      2.53051533	     -2.96687052	      2.52149770	      0.15686586	      0.87487995	      0.99414264	     23.81057109	     -0.31038051	    -20.25544503	    -17.91705237	     -0.31271156	     -9.45902333	      0.38640071	      0.12952171	    -15.42464419	      3.27096777	      6.16050969	    -20.80341613	     -0.36308811	     10.37555993	     -8.39432947	     -8.74062401	     -9.16253828	      6.13575768	     -5.52943663	     -1.85258692	     -8.12031722	     11.20856074	     14.20253664	     89.95437384	      0.00000000	      0.00000000	     13.28498485	     11.75363088	     -8.25321356	     42.28723252	     89.95437384	      0.00000000	      0.00000000
      1.35000000	      2.25017624	     -2.89609544	      2.29970230	      0.16850307	      0.87535102	      0.99563444	     23.70961179	     -0.29941929	    -19.97406043	    -18.44632455	     -0.32194910	     -9.41499184	      0.29597257	      0.12565608	    -15.42392484	      3.19144594	      5.86335197	    -21.57961172	     -0.37663528	      9.86993314	     -8.04607210	     -8.53068434	     -8.80125789	      6.04183341	     -5.40119902	     -2.05520643	     -8.10281955	     11.18070195	     14.61837571	     89.95437384	      0.00000000	      0.00000000	     12.33097208	     11.57093424	     -8.30627062	     41.99572707	     89.95437384	      0.00000000	      0.00000000
